<svg id="Layer_1" data-name="Layer 1" xmlns="http://www.w3.org/2000/svg" viewBox="0 0 200 200"><defs><style>.cls-1{fill:#ff533d;}</style></defs><path class="cls-1" d="M63.06,159.22a65.52,65.52,0,0,1-25.75-24.35A66.4,66.4,0,0,1,28,100a66.4,66.4,0,0,1,9.31-34.87A65.52,65.52,0,0,1,63.06,40.78Q79.52,31.95,100,32t36.85,8.83A65.87,65.87,0,0,1,172,100a65.87,65.87,0,0,1-35.15,59.22q-16.36,8.84-36.85,8.83T63.06,159.22Zm58-22.47a38.4,38.4,0,0,0,14.76-14.94A44,44,0,0,0,141.17,100a44,44,0,0,0-5.36-21.81,38.4,38.4,0,0,0-14.76-14.94,41.74,41.74,0,0,0-21-5.36,41.74,41.74,0,0,0-21,5.36A38.4,38.4,0,0,0,64.19,78.19,44,44,0,0,0,58.83,100a44,44,0,0,0,5.36,21.81A38.4,38.4,0,0,0,79,136.75a41.74,41.74,0,0,0,21,5.36A41.74,41.74,0,0,0,121.05,136.75Z"/></svg>