<svg id="Layer_1" data-name="Layer 1" xmlns="http://www.w3.org/2000/svg" viewBox="0 0 200 200"><path id="truck" d="M132,60V20H20V156H35.44a31.86,31.86,0,0,0,61.76,0h20.14a24,24,0,0,0,48,0H180V60ZM80.1,156a16,16,0,0,1-29.79-8,15.78,15.78,0,0,1,2.23-8,15.86,15.86,0,0,1,27.56,0,15.48,15.48,0,0,1,0,16ZM116,140H97.2c-3.57-13.79-16.65-24-31.55-24C52.75,116,44,123.68,36,134.67V36h80Zm25.34,24a8,8,0,1,1,8-8A8,8,0,0,1,141.35,164ZM164,140h-4.9a25.32,25.32,0,0,0-18.44-8c-2.83,0-8.68.58-8.68,1.47V124h32Zm0-32H132V76h32Z"/></svg>