<svg id="Layer_1" data-name="Layer 1" xmlns="http://www.w3.org/2000/svg" viewBox="0 0 200 200"><path id="message_three_points" d="M175.08,151.93l-2.11-8.1c-2.29-8.78-2.78-18.05-.41-26.81a73.09,73.09,0,0,0,.78-34.73c-7-32.21-36.53-58-73.66-58-45.1,0-80.95,38.81-74.66,84.22,4.86,35.13,36.15,63.53,74.66,63.53,11.12,0,13.36-2,23.18-2,11.84,0,28.58,5,28.58,5C165.74,178.67,178.73,165.94,175.08,151.93Zm-18.74,8.63s-19.81-5.62-33.48-5.62c-11.17,0-13.71,2-23.18,2-30.89,0-55.83-22.78-59.67-50.47-5.08-36.74,24.17-67,59.67-67,29.85,0,53.33,20.46,58.86,46.05a57.87,57.87,0,0,1-.6,27.58c-2.87,10.64-2.74,22.6.38,34.58C159.91,153.77,162.85,160.56,156.34,160.56Zm-80-61A15.14,15.14,0,1,1,61.19,84.41,15.14,15.14,0,0,1,76.33,99.55Zm37.85,0A15.14,15.14,0,1,1,99,84.41,15.14,15.14,0,0,1,114.18,99.55Zm37.85,0a15.14,15.14,0,1,1-15.14-15.14A15.14,15.14,0,0,1,152,99.55Z"/></svg>